<svg xmlns="http://www.w3.org/2000/svg" version="1.1" viewBox="-5.0 -10.0 110.0 135.0">
 <path d="m63.656 25.43c-0.52344-0.26953-1.1484-0.21875-1.625 0.125l-6.7656 4.8867c-0.40625 0.29297-0.64844 0.76562-0.64844 1.2656 0 0.50391 0.24219 0.97266 0.64844 1.2656l6.7656 4.8828c0.27344 0.19531 0.59375 0.29688 0.91406 0.29688 0.24219 0 0.48828-0.054688 0.71094-0.17188 0.52344-0.26562 0.85156-0.80469 0.85156-1.3906v-3.3203h17.281v18.418c0 0.86328 0.69922 1.5625 1.5625 1.5625 0.86328 0 1.5625-0.69922 1.5625-1.5625v-19.98c0-0.86328-0.69922-1.5625-1.5625-1.5625h-18.844v-3.3242c0-0.58594-0.32812-1.125-0.85156-1.3906zm-2.2734 8.1055-2.5312-1.8281 2.5312-1.8281z"/>
 <path d="m48.707 90.234c0.22656 0.11719 0.46875 0.17188 0.71094 0.17188 0.32031 0 0.64453-0.10156 0.91406-0.29688l6.7656-4.8828c0.40625-0.29297 0.64844-0.76562 0.64844-1.2656 0-0.50391-0.24219-0.97266-0.64844-1.2656l-6.7656-4.8867c-0.47266-0.34375-1.1016-0.39062-1.625-0.125-0.52344 0.26562-0.85156 0.80469-0.85156 1.3906v3.3242h-17.281v-18.422c0-0.86328-0.69922-1.5625-1.5625-1.5625s-1.5625 0.69922-1.5625 1.5625v19.98c0 0.86328 0.69922 1.5625 1.5625 1.5625h18.844v3.3203c0 0.58984 0.32812 1.1289 0.85156 1.3945zm2.2734-8.1055 2.5352 1.8281-2.5352 1.8281z"/>
 <path d="m4.6875 40.25h11.734v16.406c0 0.86328 0.69922 1.5625 1.5625 1.5625h28.281c0.86328 0 1.5625-0.69922 1.5625-1.5625v-37.516c0-0.86328-0.69922-1.5625-1.5625-1.5625h-11.734v-12.891c0-0.86328-0.69922-1.5625-1.5625-1.5625h-28.281c-0.86328 0-1.5625 0.69922-1.5625 1.5625v34c0 0.86328 0.69922 1.5625 1.5625 1.5625zm40.016-19.547v34.391h-25.156v-14.844h21.805c0.86328 0 1.5625-0.69922 1.5625-1.5625s-0.69922-1.5625-1.5625-1.5625h-6.8203v-3.0469h6.8203c0.86328 0 1.5625-0.69922 1.5625-1.5625s-0.69922-1.5625-1.5625-1.5625h-6.8203v-3.0469h6.8203c0.86328 0 1.5625-0.69922 1.5625-1.5625s-0.69922-1.5625-1.5625-1.5625h-6.8203v-4.0781zm-38.453-14.453h25.156v30.875h-25.156z"/>
 <path d="m10.664 12.188h7.3203c0.86328 0 1.5625-0.69922 1.5625-1.5625s-0.69922-1.5625-1.5625-1.5625h-7.3203c-0.86328 0-1.5625 0.69922-1.5625 1.5625 0 0.85938 0.69922 1.5625 1.5625 1.5625z"/>
 <path d="m10.664 17.586h16.762c0.86328 0 1.5625-0.69922 1.5625-1.5625 0-0.86328-0.69922-1.5625-1.5625-1.5625h-16.762c-0.86328 0-1.5625 0.69922-1.5625 1.5625 0 0.85937 0.69922 1.5625 1.5625 1.5625z"/>
 <path d="m10.664 22.984h16.762c0.86328 0 1.5625-0.69922 1.5625-1.5625s-0.69922-1.5625-1.5625-1.5625h-16.762c-0.86328 0-1.5625 0.69922-1.5625 1.5625s0.69922 1.5625 1.5625 1.5625z"/>
 <path d="m10.664 28.383h16.762c0.86328 0 1.5625-0.69922 1.5625-1.5625 0-0.86328-0.69922-1.5625-1.5625-1.5625h-16.762c-0.86328 0-1.5625 0.69922-1.5625 1.5625 0 0.86328 0.69922 1.5625 1.5625 1.5625z"/>
 <path d="m28.992 32.219c0-0.86328-0.69922-1.5625-1.5625-1.5625h-16.766c-0.86328 0-1.5625 0.69922-1.5625 1.5625s0.69922 1.5625 1.5625 1.5625h16.762c0.86328 0 1.5664-0.69922 1.5664-1.5625z"/>
 <path d="m95.312 59.75h-28.281c-0.86328 0-1.5625 0.69922-1.5625 1.5625v34c0 0.86328 0.69922 1.5625 1.5625 1.5625h28.281c0.86328 0 1.5625-0.69922 1.5625-1.5625v-34c0-0.86328-0.69922-1.5625-1.5625-1.5625zm-1.5625 34h-25.156v-30.875h25.156z"/>
 <path d="m82.453 68.812h7.3203c0.86328 0 1.5625-0.69922 1.5625-1.5625s-0.69922-1.5625-1.5625-1.5625h-7.3203c-0.86328 0-1.5625 0.69922-1.5625 1.5625 0 0.85938 0.69922 1.5625 1.5625 1.5625z"/>
 <path d="m81.922 74.211h7.8516c0.86328 0 1.5625-0.69922 1.5625-1.5625 0-0.86328-0.69922-1.5625-1.5625-1.5625h-7.8516c-0.86328 0-1.5625 0.69922-1.5625 1.5625 0 0.86328 0.69531 1.5625 1.5625 1.5625z"/>
 <path d="m73.008 79.609h16.762c0.86328 0 1.5625-0.69922 1.5625-1.5625s-0.69922-1.5625-1.5625-1.5625h-16.762c-0.86328 0-1.5625 0.69922-1.5625 1.5625s0.69922 1.5625 1.5625 1.5625z"/>
 <path d="m73.008 85.008h16.762c0.86328 0 1.5625-0.69922 1.5625-1.5625 0-0.86328-0.69922-1.5625-1.5625-1.5625h-16.762c-0.86328 0-1.5625 0.69922-1.5625 1.5625 0 0.86328 0.69922 1.5625 1.5625 1.5625z"/>
 <path d="m73.008 90.406h16.762c0.86328 0 1.5625-0.69922 1.5625-1.5625s-0.69922-1.5625-1.5625-1.5625h-16.762c-0.86328 0-1.5625 0.69922-1.5625 1.5625s0.69922 1.5625 1.5625 1.5625z"/>
 <path d="m41.352 42.898h-16.766c-0.86328 0-1.5625 0.69922-1.5625 1.5625 0 0.86328 0.69922 1.5625 1.5625 1.5625h16.762c0.86328 0 1.5625-0.69922 1.5625-1.5625 0.003906-0.85938-0.69531-1.5625-1.5586-1.5625z"/>
 <path d="m41.352 48.938h-16.766c-0.86328 0-1.5625 0.69922-1.5625 1.5625s0.69922 1.5625 1.5625 1.5625h16.762c0.86328 0 1.5625-0.69922 1.5625-1.5625 0.003906-0.86328-0.69531-1.5625-1.5586-1.5625z"/>
<text x="0.0" y="117.5" font-size="5.0" font-weight="bold" font-family="Arbeit Regular, Helvetica, Arial-Unicode, Arial, Sans-serif" fill="#000000">Created by Jojoid</text><text x="0.0" y="122.5" font-size="5.0" font-weight="bold" font-family="Arbeit Regular, Helvetica, Arial-Unicode, Arial, Sans-serif" fill="#000000">from Noun Project</text></svg>